<svg viewBox="0 0 602 146" xmlns="http://www.w3.org/2000/svg">
    <!-- Logo -->
    <path fill="#F55FA6"
        d="M152.647 91.115l-8.433-45.875a19.108 19.108 0 0 0-7.575-12.686c-.549-.405-1.136-.757-1.728-1.098L86.92 3.757C79.757-.399 73.155-.459 66.035 3.638L17.939 31.447a18.863 18.863 0 0 0-3.084 2.228c-3.353 2.985-5.59 7.062-6.231 11.565L.191 91.115a19.104 19.104 0 0 0 9.363 19.235l57.313 33.09a19.104 19.104 0 0 0 19.105 0l4.509-2.604 52.804-30.486a19.105 19.105 0 0 0 9.362-19.235" />
    <path fill="#FFF"
        d="M93.816 26.854L81.841 54.185c-.673 1.457-2.266 1.784-3.589 1.049L46.516 36.935c-2.114-1.266-1.648-4.445.784-4.903l43.711-9.031c2.185-.412 3.711 1.814 2.805 3.853" />
    <path fill="#DB4792"
        d="M78.223 137.086c-.559-1.439-.792-2.983-.792-4.526V83.944c0-8.423-8.592-13.364-8.592-13.364S28.81 47.186 20.084 42.2c-10.023-5.728-2.145-10.753-2.145-10.753a18.906 18.906 0 0 0-3.084 2.228c-3.353 2.985-5.59 7.062-6.231 11.565L.191 91.115a19.104 19.104 0 0 0 9.363 19.235l57.313 33.09a19.104 19.104 0 0 0 19.105 0l4.509-2.604c-7.873 3.334-11.017-.55-12.258-3.75" />
    <!-- Wordmark -->
    <path fill="#491757"
        d="M371.106 59.06c0 .589.726.848 1.113.405 4.451-5.098 12.101-9.007 21.646-9.007 14.893 0 24.867 10.255 24.867 25.71v43.804a2.411 2.411 0 0 1-2.411 2.411h-15.69a2.41 2.41 0 0 1-2.41-2.411V79.819c0-8.569-4.636-12.643-12.223-12.643-8.569 0-14.61 5.619-14.61 14.048v38.753a2.41 2.41 0 0 1-2.411 2.41h-15.831a2.41 2.41 0 0 1-2.41-2.41V52.865a2.41 2.41 0 0 1 2.41-2.411h15.55a2.41 2.41 0 0 1 2.41 2.411v6.195zm144.484 59.433a2.432 2.432 0 0 1-.233 3.207c-.464.463-1.116.687-1.771.687h-19.55a2.423 2.423 0 0 1-1.932-.959l-28.901-38.159a2.433 2.433 0 0 0-3.674-.237l-4.021 4.087a3.04 3.04 0 0 0-.873 2.133v30.71a2.425 2.425 0 0 1-2.425 2.425h-16.2a2.425 2.425 0 0 1-2.425-2.425V27.765a2.425 2.425 0 0 1 2.425-2.425h16.2a2.425 2.425 0 0 1 2.425 2.425V57c0 1.649 2.015 2.452 3.149 1.253l30.419-32.154a2.426 2.426 0 0 1 1.762-.759h19.891c.95 0 1.855.532 2.216 1.41.435 1.056.149 2.084-.511 2.737l-33.815 34.977a3.04 3.04 0 0 0-.234 3.955l38.078 50.074zm50.743-14.368v-39a1.32 1.32 0 0 0-1.32-1.32h-6.262a2.394 2.394 0 0 1-2.393-2.393v-8.56a2.393 2.393 0 0 1 2.393-2.393h6.262a1.32 1.32 0 0 0 1.32-1.321V27.707a2.392 2.392 0 0 1 2.392-2.393h15.726a2.393 2.393 0 0 1 2.393 2.393v21.431c0 .729.59 1.321 1.32 1.321h11.178a2.393 2.393 0 0 1 2.393 2.393v8.56a2.393 2.393 0 0 1-2.393 2.393h-11.178c-.73 0-1.32.591-1.32 1.32v33.942c0 5.338 1.826 7.305 6.322 7.305h6.176a2.393 2.393 0 0 1 2.393 2.393v11.23a2.392 2.392 0 0 1-2.393 2.392h-16.01c-10.818 0-16.999-6.743-16.999-18.262zm-38.868-78.789h15.876a2.459 2.459 0 0 1 2.458 2.458v10.959a2.458 2.458 0 0 1-2.458 2.458h-15.876a2.457 2.457 0 0 1-2.458-2.458V27.794c0-1.357 1.1-2.458 2.458-2.458zm-.17 25.122h16.076a2.288 2.288 0 0 1 2.288 2.288v67.353a2.288 2.288 0 0 1-2.288 2.288h-16.076a2.288 2.288 0 0 1-2.288-2.288V52.746a2.288 2.288 0 0 1 2.288-2.288zm-211.782 63.324c0-.589-.725-.848-1.112-.406-4.451 5.099-12.101 9.007-21.647 9.007-14.891 0-24.866-10.255-24.866-25.709V52.869a2.41 2.41 0 0 1 2.41-2.41h15.691a2.41 2.41 0 0 1 2.41 2.41v40.153c0 8.569 4.636 12.644 12.222 12.644 8.57 0 14.611-5.62 14.611-14.049V52.865a2.41 2.41 0 0 1 2.41-2.411h15.832a2.41 2.41 0 0 1 2.41 2.411v67.112a2.41 2.41 0 0 1-2.41 2.41h-15.55a2.41 2.41 0 0 1-2.411-2.41v-6.195zM176.683 27.54a2.23 2.23 0 0 1 2.229-2.229h44.413c18.545 0 32.312 10.677 32.312 28.659 0 12.231-6.038 20.562-16.091 25.35a1.805 1.805 0 0 0-.824 2.491l20.191 37.286c.804 1.486-.271 3.29-1.96 3.29h-18.182a2.228 2.228 0 0 1-2.006-1.258L219.278 84.99a3.185 3.185 0 0 0-2.867-1.798h-16.425a2.229 2.229 0 0 0-2.229 2.228v34.739c0 1.23-.998 2.228-2.229 2.228h-16.616a2.23 2.23 0 0 1-2.229-2.228V27.54zm45.378 39.074c8.991-.281 12.925-4.917 12.925-11.8 0-7.165-4.356-11.661-13.628-11.661h-21.232a2.23 2.23 0 0 0-2.229 2.229v19.003a2.23 2.23 0 0 0 2.229 2.229h21.935z" />
</svg>